<?xml version="1.0" encoding="UTF-8"?>
<svg width="72px" height="72px" viewBox="0 0 72 72" version="1.1" xmlns="http://www.w3.org/2000/svg" xmlns:xlink="http://www.w3.org/1999/xlink">
    <!-- Generator: Sketch 52.1 (67048) - http://www.bohemiancoding.com/sketch -->
    <title>Group 10</title>
    <desc>Created with Sketch.</desc>
    <defs>
        <path d="M52.3742675,15.5 L31.2204124,15.5 C30.0674522,15.5 29.1323838,16.4199299 29.1323838,17.5548854 C29.1323838,18.6898408 30.0674522,19.6097707 31.2204124,19.6097707 L52.3742675,19.6097707 C53.5275287,19.6097707 54.4622962,18.6898408 54.4622962,17.5548854 C54.4622962,16.4199299 53.5275287,15.5 52.3742675,15.5 M21.7017946,31.3005223 C21.7017946,34.1236943 19.6492787,36.1726561 16.8224045,36.1726561 C14.0364602,36.1726561 12.0149427,34.1236943 12.0149427,31.3005223 C12.0149427,28.5389554 14.0364602,26.533828 16.8224045,26.533828 C19.6492787,26.533828 21.7017946,28.5389554 21.7017946,31.3005223 M16.8224045,22.5294968 C11.6378455,22.5294968 7.875,26.2183981 7.875,31.3005223 C7.875,36.3607293 11.7215111,40.1763949 16.8224045,40.1763949 C21.9642277,40.1763949 25.8411354,36.3607293 25.8411354,31.3005223 C25.8411354,26.2183981 22.0484952,22.5294968 16.8224045,22.5294968 M50.9248662,31.3005223 C50.9248662,34.1236943 48.8732532,36.1726561 46.0457771,36.1726561 C43.2595318,36.1726561 41.2380143,34.1236943 41.2380143,31.3005223 C41.2380143,28.5389554 43.2595318,26.533828 46.0457771,26.533828 C48.8732532,26.533828 50.9248662,28.5389554 50.9248662,31.3005223 M46.0457771,22.5294968 C40.8609172,22.5294968 37.0980717,26.2183981 37.0980717,31.3005223 C37.0980717,36.3607293 40.9445828,40.1763949 46.0457771,40.1763949 C51.1876003,40.1763949 55.0648089,36.3607293 55.0648089,31.3005223 C55.0648089,26.2183981 51.2715669,22.5294968 46.0457771,22.5294968 M31.2490032,22.7060191 C30.1267404,22.7060191 29.2142436,23.6354268 29.2142436,24.7789713 L29.2142436,39.5079204 C29.2434363,40.8620478 28.9900318,41.7887898 28.4398854,42.342051 C28.0290812,42.7549236 27.4313838,42.9643217 26.6639475,42.9643217 L26.1980685,42.9643217 C25.1155318,42.9643217 24.2349363,43.8469331 24.2349363,44.9318344 C24.2349363,45.9773439 25.1155318,46.8273758 26.1980685,46.8273758 L27.0934108,46.8273758 C31.2715748,46.8273758 33.390301,44.363172 33.390301,39.5031815 L33.390301,24.7789713 C33.390301,23.6354268 32.4299522,22.7060191 31.2490032,22.7060191" id="path-1"></path>
    </defs>
    <g id="Playground" stroke="none" stroke-width="1" fill="none" fill-rule="evenodd">
        <g id="Landing-Page" transform="translate(-684.000000, -4902.000000)">
            <g id="Group-10" transform="translate(684.000000, 4902.000000)">
                <path d="M36,0 L36,0 C55.882251,-3.65231026e-15 72,16.117749 72,36 L72,36 C72,55.882251 55.882251,72 36,72 L36,72 C16.117749,72 2.4348735e-15,55.882251 0,36 L0,36 C-2.4348735e-15,16.117749 16.117749,3.65231026e-15 36,0 Z" id="Rectangle-17" fill="#3366FF" fill-rule="nonzero"></path>
                <g id="icon/ojo-logo" transform="translate(4.000000, 6.000000)">
                    <rect id="Bounding-Box" x="0" y="0" width="63" height="62"></rect>
                    <mask id="mask-2" fill="white">
                        <use xlink:href="#path-1"></use>
                    </mask>
                    <use id="Mask" fill="#212121" fill-rule="evenodd" xlink:href="#path-1"></use>
                    <g id="↳-🎨Color" stroke-width="1" fill-rule="evenodd" mask="url(#mask-2)" fill="#FFFFFF">
                        <g id="fill/grey/7---white">
                            <rect id="Box" x="0" y="0" width="63" height="62"></rect>
                        </g>
                    </g>
                </g>
            </g>
        </g>
    </g>
</svg>