<?xml version="1.0" encoding="UTF-8"?>
<svg width="180px" height="48px" viewBox="0 0 180 48" version="1.1" xmlns="http://www.w3.org/2000/svg" xmlns:xlink="http://www.w3.org/1999/xlink">
    <!-- Generator: Sketch 52.1 (67048) - http://www.bohemiancoding.com/sketch -->
    <title>ojohome</title>
    <desc>Created with Sketch.</desc>
    <defs>
        <polygon id="path-1" points="0.17020343 0.0154449472 26.9859513 0.0154449472 26.9859513 39.1247541 0.17020343 39.1247541"></polygon>
    </defs>
    <g id="Playground" stroke="none" stroke-width="1" fill="none" fill-rule="evenodd">
        <g id="Landing-Page" transform="translate(-104.000000, -56.000000)">
            <g id="ojohome" transform="translate(104.000000, 56.000000)">
                <polygon id="Fill-1" fill="#00B0FF" points="0 48 179.692308 48 179.692308 0 0 0"></polygon>
                <path d="M17.996392,28.2413189 C17.996392,31.7856963 15.3255881,34.3584562 11.645692,34.3584562 C8.02024617,34.3584562 5.38861514,31.7856963 5.38861514,28.2413189 C5.38861514,24.7742842 8.02024617,22.2576721 11.645692,22.2576721 C15.3255881,22.2576721 17.996392,24.7742842 17.996392,28.2413189 Z M11.645692,17.2307692 C4.89777952,17.2307692 0,21.8616627 0,28.2413189 C0,34.5942027 5.00628827,39.3846154 11.645692,39.3846154 C18.3383708,39.3846154 23.3846154,34.5942027 23.3846154,28.2413189 C23.3846154,21.8616627 18.4480548,17.2307692 11.645692,17.2307692 Z" id="Fill-3" fill="#FFFFFE"></path>
                <path d="M30.3515971,16 C28.8436326,16 27.6164644,17.2334291 27.6164644,18.7497728 L27.6164644,38.2897419 C27.6557111,40.0858567 27.3150334,41.3157494 26.5758193,42.0493627 C26.0231283,42.5975098 25.2195819,42.8753162 24.1878381,42.8753162 L23.5615089,42.8753162 C22.1065478,42.8753162 20.9230769,44.0458754 20.9230769,45.4848105 C20.9230769,46.871878 22.1065478,48 23.5615089,48 L24.76521,48 C30.3827517,48 33.2307692,44.7307645 33.2307692,38.283062 L33.2307692,18.7497728 C33.2307692,17.2334291 31.9392687,16 30.3515971,16" id="Fill-4" fill="#FFFFFE"></path>
                <g id="Group-8" transform="translate(35.692308, 0.000000)">
                    <mask id="mask-2" fill="white">
                        <use xlink:href="#path-1"></use>
                    </mask>
                    <g id="Clip-6"></g>
                    <path d="M20.1297582,27.5533997 C20.1297582,31.2339306 17.4928527,33.9055204 13.8587429,33.9055204 C10.2784,33.9055204 7.67978901,31.2339306 7.67978901,27.5533997 C7.67978901,23.9531825 10.2784,21.3398974 13.8587429,21.3398974 C17.4928527,21.3398974 20.1297582,23.9531825 20.1297582,27.5533997 Z M13.8587429,16.1198914 C7.1954989,16.1198914 2.35956044,20.9286757 2.35956044,27.5533997 C2.35956044,34.1503228 7.30303297,39.1247541 13.8587429,39.1247541 C20.4670593,39.1247541 25.4507604,34.1503228 25.4507604,27.5533997 C25.4507604,20.9286757 20.575367,16.1198914 13.8587429,16.1198914 Z" id="Fill-5" fill="#FFFFFE" mask="url(#mask-2)"></path>
                    <path d="M2.8922022,12.3273846 C2.01684396,12.3273846 1.15734505,11.9057376 0.632826374,11.1257677 C-0.205010989,9.88090498 0.126487912,8.19431674 1.37396044,7.35835897 L11.0435165,0.876500754 C12.8449055,-0.33052187 15.2350242,-0.287662142 16.9907692,0.985001508 L25.8634901,7.41511916 C27.0796308,8.29586727 27.3492396,9.99365309 26.4669187,11.2068537 C25.584211,12.4200543 23.8845538,12.6895686 22.6684132,11.8092066 L13.9337846,5.47948115 L4.40657582,11.8659668 C3.94085275,12.1779548 3.4144,12.3273846 2.8922022,12.3273846" id="Fill-7" fill="#FFFFFE" mask="url(#mask-2)"></path>
                </g>
                <path d="M71.3594794,20.3972467 C72.5959208,17.6983162 76.0668996,16.5615984 78.397475,16.5615984 C84.0559441,16.5615984 87.3846154,20.2551569 87.3846154,26.5524032 L87.3846154,36.922243 C87.3846154,38.2478976 86.2908702,39.3846154 84.8642968,39.3846154 C83.5329838,39.3846154 82.4866744,38.2478976 82.4866744,36.922243 L82.4866744,26.8369698 C82.4866744,23.3803566 80.2991841,21.3442534 77.5412976,21.3442534 C74.7359754,21.3442534 71.3594794,22.906466 71.3594794,27.2628518 L71.3594794,36.922243 C71.3594794,38.2478976 70.2661231,39.3846154 68.8395497,39.3846154 C67.5078478,39.3846154 66.4615385,38.2478976 66.4615385,36.922243 L66.4615385,9.84698774 C66.4615385,8.52094602 67.5552836,7.38461538 68.9818571,7.38461538 C70.3135589,7.38461538 71.3594794,8.52094602 71.3594794,9.84698774 L71.3594794,20.3972467 Z M108.343122,28.2396239 C108.343122,24.3277367 105.228099,21.7798213 101.490463,21.7798213 C97.8006298,21.7798213 94.7338014,24.3277367 94.7338014,28.2396239 C94.7338014,32.2426409 97.8006298,34.8359353 101.490463,34.8359353 C105.228099,34.8359353 108.343122,32.2426409 108.343122,28.2396239 Z M89.8461538,28.2396239 C89.8461538,21.5071757 95.1652027,17.2307692 101.490463,17.2307692 C107.863918,17.2307692 113.230769,21.5071757 113.230769,28.2396239 C113.230769,34.9720721 107.863918,39.3846154 101.490463,39.3846154 C95.1652027,39.3846154 89.8461538,34.9720721 89.8461538,28.2396239 Z M122.989833,20.908107 C124.445197,17.9200117 128.154437,17.2307692 129.891584,17.2307692 C133.365878,17.2307692 135.572534,18.7937787 136.793336,21.5052751 C138.859101,17.7824639 142.145668,17.2307692 144.164597,17.2307692 C149.563765,17.2307692 152.615385,20.678109 152.615385,26.7910958 L152.615385,36.9944398 C152.615385,38.2812261 151.535858,39.3846154 150.12733,39.3846154 C148.812473,39.3846154 147.779782,38.2812261 147.779782,36.9944398 L147.779782,27.2048668 C147.779782,23.8496014 145.94858,21.8731968 143.131523,21.8731968 C139.939011,21.8731968 137.82641,24.1709222 137.82641,27.6182619 L137.82641,36.9944398 C137.82641,38.2812261 136.746116,39.3846154 135.337972,39.3846154 C134.023498,39.3846154 132.99004,38.2812261 132.99004,36.9944398 L132.99004,27.1124166 C132.99004,23.8033763 131.112386,21.8731968 128.529891,21.8731968 C125.712834,21.8731968 122.989833,23.4358305 122.989833,27.6182619 L122.989833,36.9944398 C122.989833,38.2812261 121.909922,39.3846154 120.501394,39.3846154 C119.186921,39.3846154 118.153846,38.2812261 118.153846,36.9944398 L118.153846,19.850567 C118.153846,18.5637807 119.233756,17.4607673 120.642285,17.4607673 C121.956758,17.4607673 122.989833,18.5637807 122.989833,19.850567 L122.989833,20.908107 Z M174.971479,26.5565119 C174.504478,23.2356667 172.026932,21.3249161 168.755638,21.3249161 C165.390332,21.3249161 162.772914,23.2810456 162.305914,26.5565119 L174.971479,26.5565119 Z M177.495649,29.9684869 L162.305914,29.9684869 C162.772914,33.2432092 165.483961,35.2904686 168.989138,35.2904686 C171.279426,35.2904686 172.587943,34.5171669 174.176967,33.2432092 C174.971479,32.6064163 176.280378,32.2883918 177.261767,33.0616934 C178.149908,33.7438653 178.196531,35.1539598 177.355014,36.0183913 C175.158355,38.2471664 171.980308,39.3846154 168.755638,39.3846154 C162.539414,39.3846154 157.538462,34.9720721 157.538462,28.2396239 C157.538462,21.5071757 162.539414,17.2307692 168.755638,17.2307692 C174.831608,17.2307692 179.505049,21.3249161 179.692308,27.8304696 C179.692308,29.0583045 178.663914,29.9684869 177.495649,29.9684869 Z" id="Combined-Shape" fill="#0D47A1"></path>
            </g>
        </g>
    </g>
</svg>